HIERARCHY
ROOT hip
{
  OFFSET 0 0 0
  CHANNELS 6 Xposition Yposition Zposition Zrotation Yrotation Xrotation
  JOINT abdomen
  {
    OFFSET 0 20.6881 -0.73152
    CHANNELS 3 Zrotation Xrotation Yrotation
    JOINT chest
    {
      OFFSET 0 11.7043 -0.48768
      CHANNELS 3 Zrotation Xrotation Yrotation
      JOINT neck
      {
        OFFSET 0 22.1894 -2.19456
        CHANNELS 3 Zrotation Xrotation Yrotation
        JOINT head
        {
          OFFSET -0.24384 7.07133 1.2192
          CHANNELS 3 Zrotation Xrotation Yrotation
          JOINT leftEye
          {
            OFFSET 4.14528 8.04674 8.04672
            CHANNELS 3 Zrotation Xrotation Yrotation
            End Site
            {
              OFFSET 1 0 0
            }
          }
          JOINT rightEye
          {
            OFFSET -3.6576 8.04674 8.04672
            CHANNELS 3 Zrotation Xrotation Yrotation
            End Site
            {
              OFFSET 1 0 0
            }
          }
        }
      }
      JOINT rCollar
      {
        OFFSET -2.68224 19.2634 -4.8768
        CHANNELS 3 Zrotation Xrotation Yrotation
        JOINT rShldr
        {
          OFFSET -8.77824 -1.95073 1.46304
          CHANNELS 3 Zrotation Xrotation Yrotation
          JOINT rForeArm
          {
            OFFSET -28.1742 -1.7115 0.48768
            CHANNELS 3 Zrotation Xrotation Yrotation
            JOINT rHand
            {
              OFFSET -22.5879 0.773209 7.07136
              CHANNELS 3 Zrotation Xrotation Yrotation
              JOINT rThumb1
              {
                OFFSET -1.2192 -0.487915 3.41376
                CHANNELS 3 Zrotation Xrotation Yrotation
                JOINT rThumb2
                {
                  OFFSET -3.37035 -0.52449 3.41376
                  CHANNELS 3 Zrotation Xrotation Yrotation
                  End Site
                  {
                    OFFSET -1.78271 -1.18214 1.43049
                  }
                }
              }
              JOINT rIndex1
              {
                OFFSET -7.75947 0.938293 5.60832
                CHANNELS 3 Zrotation Xrotation Yrotation
                JOINT rIndex2
                {
                  OFFSET -2.54057 -0.884171 1.56538
                  CHANNELS 3 Zrotation Xrotation Yrotation
                  End Site
                  {
                    OFFSET -1.62519 -0.234802 1.16502
                  }
                }
              }
              JOINT rMid1
              {
                OFFSET -8.24714 1.18213 3.41376
                CHANNELS 3 Zrotation Xrotation Yrotation
                JOINT rMid2
                {
                  OFFSET -3.10165 -0.590103 1.0647
                  CHANNELS 3 Zrotation Xrotation Yrotation
                  End Site
                  {
                    OFFSET -2.48547 -0.328903 0.83742
                  }
                }
              }
              JOINT rRing1
              {
                OFFSET -8.82822 0.546677 1.51678
                CHANNELS 3 Zrotation Xrotation Yrotation
                JOINT rRing2
                {
                  OFFSET -2.60934 -0.819778 -0.0198488
                  CHANNELS 3 Zrotation Xrotation Yrotation
                  End Site
                  {
                    OFFSET -2.33842 -0.294052 0.168128
                  }
                }
              }
              JOINT rPinky1
              {
                OFFSET -8.27202 -0.0477905 -0.4584
                CHANNELS 3 Zrotation Xrotation Yrotation
                JOINT rPinky2
                {
                  OFFSET -1.82734 -0.647385 -0.700984
                  CHANNELS 3 Zrotation Xrotation Yrotation
                  End Site
                  {
                    OFFSET -1.69225 -0.51767 -0.607171
                  }
                }
              }
            }
          }
        }
      }
      JOINT lCollar
      {
        OFFSET 2.68224 19.2634 -4.8768
        CHANNELS 3 Zrotation Xrotation Yrotation
        JOINT lShldr
        {
          OFFSET 8.77824 -1.95073 1.46304
          CHANNELS 3 Zrotation Xrotation Yrotation
          JOINT lForeArm
          {
            OFFSET 28.1742 -1.7115 0.48768
            CHANNELS 3 Zrotation Xrotation Yrotation
            JOINT lHand
            {
              OFFSET 22.5879 0.773209 7.07136
              CHANNELS 3 Zrotation Xrotation Yrotation
              JOINT lThumb1
              {
                OFFSET 1.2192 -0.487915 3.41376
                CHANNELS 3 Zrotation Xrotation Yrotation
                JOINT lThumb2
                {
                  OFFSET 3.37035 -0.52449 3.41376
                  CHANNELS 3 Zrotation Xrotation Yrotation
                  End Site
                  {
                    OFFSET 1.78271 -1.18214 1.43049
                  }
                }
              }
              JOINT lIndex1
              {
                OFFSET 7.75947 0.938293 5.60832
                CHANNELS 3 Zrotation Xrotation Yrotation
                JOINT lIndex2
                {
                  OFFSET 2.54057 -0.884171 1.56538
                  CHANNELS 3 Zrotation Xrotation Yrotation
                  End Site
                  {
                    OFFSET 1.62519 -0.234802 1.16502
                  }
                }
              }
              JOINT lMid1
              {
                OFFSET 8.24714 1.18213 3.41376
                CHANNELS 3 Zrotation Xrotation Yrotation
                JOINT lMid2
                {
                  OFFSET 3.10165 -0.590103 1.0647
                  CHANNELS 3 Zrotation Xrotation Yrotation
                  End Site
                  {
                    OFFSET 2.48547 -0.328903 0.83742
                  }
                }
              }
              JOINT lRing1
              {
                OFFSET 8.82822 0.546677 1.51678
                CHANNELS 3 Zrotation Xrotation Yrotation
                JOINT lRing2
                {
                  OFFSET 2.60934 -0.819778 -0.0198488
                  CHANNELS 3 Zrotation Xrotation Yrotation
                  End Site
                  {
                    OFFSET 2.33842 -0.294052 0.168128
                  }
                }
              }
              JOINT lPinky1
              {
                OFFSET 8.27202 -0.0477905 -0.4584
                CHANNELS 3 Zrotation Xrotation Yrotation
                JOINT lPinky2
                {
                  OFFSET 1.82734 -0.647385 -0.700984
                  CHANNELS 3 Zrotation Xrotation Yrotation
                  End Site
                  {
                    OFFSET 1.69225 -0.51767 -0.607171
                  }
                }
              }
            }
          }
        }
      }
    }
  }
  JOINT rButtock
  {
    OFFSET -8.77824 4.35084 1.2192
    CHANNELS 3 Zrotation Xrotation Yrotation
    JOINT rThigh
    {
      OFFSET 0 -1.70687 -2.19456
      CHANNELS 3 Zrotation Xrotation Yrotation
      JOINT rShin
      {
        OFFSET 0 -36.8199 0.73152
        CHANNELS 3 Zrotation Xrotation Yrotation
        JOINT rFoot
        {
          OFFSET 0.73152 -45.1104 -5.12064
          CHANNELS 3 Zrotation Xrotation Yrotation
          End Site
          {
            OFFSET -1.1221 -3.69964 12.103
          }
        }
      }
    }
  }
  JOINT lButtock
  {
    OFFSET 8.77824 4.35084 1.2192
    CHANNELS 3 Zrotation Xrotation Yrotation
    JOINT lThigh
    {
      OFFSET 0 -1.70687 -2.19456
      CHANNELS 3 Zrotation Xrotation Yrotation
      JOINT lShin
      {
        OFFSET 0 -36.8199 0.73152
        CHANNELS 3 Zrotation Xrotation Yrotation
        JOINT lFoot
        {
          OFFSET -0.73152 -45.1104 -5.12064
          CHANNELS 3 Zrotation Xrotation Yrotation
          End Site
          {
            OFFSET 1.1221 -3.69964 12.103
          }
        }
      }
    }
  }
}
MOTION
Frames:	4
Frame Time:	0.03333
4.930400029523298 75.16110229492188 68.22099999710917 -4.907400123775005 22.333500534296036 -23.662201166152954 -7.588179856538773 31.93430006504059 0.4276599967852235 8.340670242905617 -9.261329770088196 0.8242740109562874 -6.064569801092148 16.255200505256653 -8.562399744987488 12.140500098466873 -19.151000529527664 -14.630099684000015 0.0 0.0 0.0 0.0 0.0 0.0 0.0 0.0 0.0 56.649402379989624 13.578200340270996 2.8094399347901344 -21.172400414943695 -52.385398149490356 111.28600001335144 -0.33415299374610186 -16.22500017285347 -2.343899980187416 2.8463631451813853e-09 2.573301571828779e-09 1.9184653865522705e-09 4.901679062641051e-09 4.430376066011377e-09 3.356035449542105e-09 2.8463631451813853e-09 2.573301571828779e-09 1.9184653865522705e-09 7.7309102565050125 5.474880114197731 0.41731400415301323 2.8463631451813853e-09 2.573301571828779e-09 1.9184653865522705e-09 2.905540131032467 0.9651830233633518 0.102901995414868 2.8463631451813853e-09 2.573301571828779e-09 1.9184653865522705e-09 10.27859978377819 0.7318009994924068 0.025912300043273717 2.8463631451813853e-09 2.573301571828779e-09 1.9184653865522705e-09 2.221670038998127 -0.733487019315362 -0.2089200052432716 0.0 0.0 0.0 -55.84949791431427 53.5904985666275 -13.863500207662582 28.386898934841156 -37.256001234054565 -79.1312974691391 1.273089973255992 -30.26810109615326 4.704720005393028 -2.7753799258789513e-10 9.740688255988061e-09 -3.4276581573067233e-10 -4.68105554318754e-10 1.6810872693895362e-08 -6.036771083017811e-10 -2.7753799258789513e-10 9.740688255988061e-09 -3.4276581573067233e-10 -7.7309102565050125 5.474880114197731 -0.41731400415301323 -2.7753799258789513e-10 9.740688255988061e-09 -3.4276581573067233e-10 -2.905540131032467 0.9651830233633518 -0.102901995414868 -2.7753799258789513e-10 9.740688255988061e-09 -3.4276581573067233e-10 -10.27859978377819 0.7318009994924068 -0.025912300043273717 -2.7753799258789513e-10 9.740688255988061e-09 -3.4276581573067233e-10 -2.221670038998127 -0.733487019315362 0.2089200052432716 0.0 0.0 0.0 -152.17099785804749 -26.171700060367584 -153.64500045776367 -177.94999837875366 31.578899323940277 -179.21600103378296 3.88201005756855 30.579500198364258 3.0897200480103493 0.0 0.0 0.0 8.468639776110649 9.059169664978981 -3.381739854812622 0.3696379903703928 57.28250026702881 -3.4616901353001595 22.313299477100372 -22.01049953699112 37.61809945106506
4.615100041730329 73.96499633789062 69.57799999043345 -5.30059989541769 22.434500455856323 -22.714498937129974 -8.824979960918427 30.793199837207794 1.4105499163269997 7.480149865150452 -9.747800007462502 0.9064920153468847 -5.862270221114159 16.51890054345131 -8.839170187711716 12.81010016798973 -20.10820046067238 -14.988999366760254 0.0 0.0 0.0 0.0 0.0 0.0 0.0 0.0 0.0 58.3240020275116 14.362499713897705 1.8929700180888176 -20.84179937839508 -52.664101123809814 112.12899684906006 -0.38156900089234114 -17.306700199842453 -2.5097200088202953 4.75459671633871e-09 4.45595560449874e-09 3.0183855415089056e-09 8.18481282749417e-09 7.663629730814137e-09 5.289848559186794e-09 4.75459671633871e-09 4.45595560449874e-09 3.0183855415089056e-09 7.7309102565050125 5.474880114197731 0.41731400415301323 4.75459671633871e-09 4.45595560449874e-09 3.0183855415089056e-09 2.905540131032467 0.9651830233633518 0.102901995414868 4.75459671633871e-09 4.45595560449874e-09 3.0183855415089056e-09 10.27859978377819 0.7318009994924068 0.025912300043273717 4.75459671633871e-09 4.45595560449874e-09 3.0183855415089056e-09 2.221670038998127 -0.733487019315362 -0.2089200052432716 0.0 0.0 0.0 -60.423898100852966 55.081801414489746 -9.191100150346756 28.33260029554367 -37.923200726509094 -80.30659854412079 1.4246799610555172 -31.748999655246735 4.991790130734444 1.9952040020143613e-10 -2.1118466975167394e-08 8.492406777804717e-10 3.312550234113587e-10 -3.6425262806005776e-08 1.4631496014771983e-09 1.9952040020143613e-10 -2.1118466975167394e-08 8.492406777804717e-10 -7.7309102565050125 5.474880114197731 -0.41731400415301323 1.9952040020143613e-10 -2.1118466975167394e-08 8.492406777804717e-10 -2.905540131032467 0.9651830233633518 -0.102901995414868 1.9952040020143613e-10 -2.1118466975167394e-08 8.492406777804717e-10 -10.27859978377819 0.7318009994924068 -0.025912300043273717 1.9952040020143613e-10 -2.1118466975167394e-08 8.492406777804717e-10 -2.221670038998127 -0.733487019315362 0.2089200052432716 0.0 0.0 0.0 -145.63000202178955 -37.46090054512024 -144.52999591827393 -177.8439974784851 37.53499925136566 -179.5870041847229 1.1004299763590097 31.205999851226807 8.926710113883018 0.0 0.0 0.0 8.919230103492737 8.415920287370682 -2.647169977426529 0.2841929951682687 58.058897852897644 -3.886129930615425 23.210699558258057 -23.4511998295784 38.12700033187866
4.334400043589994 72.81639862060547 70.9429999999702 -5.269400104880333 22.780701220035553 -20.789500325918198 -9.50540006160736 29.702500998973846 1.9158400408923626 6.669920235872269 -10.04919983446598 0.8859560173004866 -5.699539929628372 16.857899576425552 -9.123810231685638 13.419000506401062 -21.186900436878204 -15.368899405002594 0.0 0.0 0.0 0.0 0.0 0.0 6.394884621840902e-13 0.0 0.0 59.79560136795044 15.186199396848679 0.9242319781333208 -20.69330021739006 -52.79430091381073 112.50400185585022 -0.41608701925724745 -18.030699491500854 -2.6220700331032276 5.0884096935988055e-09 4.972662281943485e-09 3.2537172955926508e-09 8.755876024224563e-09 8.543565854779445e-09 5.709352990379557e-09 5.0884096935988055e-09 4.972662281943485e-09 3.2537172955926508e-09 7.7309102565050125 5.474880114197731 0.41731400415301323 5.0884096935988055e-09 4.972662281943485e-09 3.2537172955926508e-09 2.905540131032467 0.9651830233633518 0.102901995414868 5.0884096935988055e-09 4.972662281943485e-09 3.2537172955926508e-09 10.27859978377819 0.7318009994924068 0.025912300043273717 5.0884096935988055e-09 4.972662281943485e-09 3.2537172955926508e-09 2.221670038998127 -0.733487019315362 -0.2089200052432716 6.394884621840902e-13 0.0 0.0 -65.18619775772095 56.5105015039444 -4.54900000244379 28.297801315784454 -38.365598917007446 -81.0400003194809 1.5704300254583359 -33.16670000553131 5.270090103149414 7.545963853772264e-10 -4.8514152695133816e-08 1.9900880943168886e-09 1.2642686897379463e-09 -8.37013658383512e-08 3.4430058803991415e-09 7.545963853772264e-10 -4.8514152695133816e-08 1.9900880943168886e-09 -7.7309102565050125 5.474880114197731 -0.41731400415301323 7.545963853772264e-10 -4.8514152695133816e-08 1.9900880943168886e-09 -2.905540131032467 0.9651830233633518 -0.102901995414868 7.545963853772264e-10 -4.8514152695133816e-08 1.9900880943168886e-09 -10.27859978377819 0.7318009994924068 -0.025912300043273717 7.545963853772264e-10 -4.8514152695133816e-08 1.9900880943168886e-09 -2.221670038998127 -0.733487019315362 0.2089200052432716 0.0 0.0 0.0 -132.37499713897705 -49.11589801311493 -129.39700484275818 -177.55899667739868 48.144198060035706 179.5609974861145 -2.121759932488203 30.786199271678925 14.037000238895416 0.0 0.0 0.0 9.855980202555656 7.811220288276672 -2.1318899653851986 0.20678100641816854 58.55519771575928 -4.26878996193409 23.92870008945465 -24.85830008983612 38.29920083284378
4.189600036246702 71.8489990234375 72.34100000187755 -4.8701998963952065 23.568801283836365 -18.567700535058975 -10.474600195884705 27.934901118278503 2.346019931137562 6.441750079393387 -9.774390086531639 0.8766459859907627 -5.598730109632015 17.02359974384308 -9.532409906387329 13.517900258302689 -21.963799595832825 -16.08860045671463 0.0 0.0 0.0 0.0 0.0 0.0 0.0 0.0 0.0 61.14070236682892 15.662200301885605 -0.5144080007448792 -20.590299367904663 -52.877798080444336 112.76100039482117 -0.4047349886968732 -17.789999395608902 -2.584710046648979 5.717026851925766e-10 5.627498467219993e-10 -2.9672264645341784e-10 9.912071163853398e-10 9.92486093309708e-10 -5.013589543523267e-10 5.717026851925766e-10 5.627498467219993e-10 -2.9672264645341784e-10 7.7309102565050125 5.474880114197731 0.41731400415301323 5.717026851925766e-10 5.627498467219993e-10 -2.9672264645341784e-10 2.905540131032467 0.9651830233633518 0.102901995414868 5.717026851925766e-10 5.627498467219993e-10 -2.9672264645341784e-10 10.27859978377819 0.7318009994924068 0.025912300043273717 5.717026851925766e-10 5.627498467219993e-10 -2.9672264645341784e-10 2.221670038998127 -0.733487019315362 -0.2089200052432716 0.0 0.0 0.0 -69.72170054912567 58.19090008735657 -0.274679996073246 28.264799416065216 -38.65370035171509 -81.5492981672287 1.8347099237143993 -35.416700541973114 5.737239718437195 5.039169082010631e-10 -2.4679138732608408e-08 8.697043085703626e-10 8.543565854779445e-10 -4.273317699698964e-08 1.5143086784519255e-09 5.039169082010631e-10 -2.4679138732608408e-08 8.697043085703626e-10 -7.7309102565050125 5.474880114197731 -0.41731400415301323 5.039169082010631e-10 -2.4679138732608408e-08 8.697043085703626e-10 -2.905540131032467 0.9651830233633518 -0.102901995414868 5.039169082010631e-10 -2.4679138732608408e-08 8.697043085703626e-10 -10.27859978377819 0.7318009994924068 -0.025912300043273717 5.039169082010631e-10 -2.4679138732608408e-08 8.697043085703626e-10 -2.221670038998127 -0.733487019315362 0.2089200052432716 0.0 0.0 0.0 -118.57699513435364 -57.42299973964691 -114.06200051307678 -177.0430040359497 61.297600865364075 178.40599536895752 -5.7571303099393845 35.05190134048462 16.648400276899338 0.0 0.0 0.0 10.43270006775856 6.831829771399498 -1.7715400457382202 0.16654799692332745 58.606202602386475 -4.456800073385239 24.26790028810501 -25.960999131202698 38.061500787734985
